<svg viewBox="0 0 25.6453 21.6943" xmlns="http://www.w3.org/2000/svg"><path d="m19.5097 2.64734.4779 2.70605h-1.9404l-.3906-2.21387c-.1653-.93106-.7455-1.30079-1.6278-1.15508l-12.89784 2.27129c-.9.16347-1.3043.71094-1.14082 1.65352l1.55645 8.81135c.16347.931.7375 1.3088 1.62774 1.1551l.37988-.0669v1.9434l-.15762.0277c-2.08652.3639-3.34902-.5144-3.70487-2.5689l-1.6121132-9.1373c-.3638668-2.05273.5224592-3.30898 2.6009732-3.68085l13.13222-2.3126966c2.0705-.3638664 3.341.5144516 3.6969 2.5671866z"/><path d="m12.7411 13.088c1.1303 0 2.051-.9368 2.051-2.0706 0-1.11422-.9207-2.05093-2.051-2.05093-1.1338 0-2.0465.93671-2.0465 2.05093 0 1.1338.9127 2.0706 2.0465 2.0706zm-3.75018 7.1627h12.77458c1.6914 0 2.5618-.8489 2.5618-2.5614v-.5494l-4.525-4.2598c-.3686-.3392-.8198-.5097-1.2877-.5097-.461 0-.8836.1527-1.278.5017l-3.8486 3.4082-1.5274-1.3843c-.365-.3295-.7486-.4805-1.1562-.4805-.3738 0-.74317.151-1.09844.4609l-3.17676 2.7875c0 1.7397.86777 2.5868 2.56172 2.5868zm-.23945.7214h13.33553c2.1016 0 3.1973-1.0859 3.1973-3.1715v-9.27573c0-2.08379-1.0957-3.17148-3.1973-3.17148h-13.33553c-2.10957 0-3.19726 1.08769-3.19726 3.17148v9.27573c0 2.0936 1.08769 3.1715 3.19726 3.1715zm.11894-1.9132c-.90977 0-1.40293-.4684-1.40293-1.4172v-8.94808c0-.95059.49316-1.42696 1.40293-1.42696h13.09769c.9 0 1.4012.47637 1.4012 1.42696v8.94808c0 .9488-.5012 1.4172-1.4012 1.4172z"/></svg>