<svg viewBox="0 0 20.5381 20.1848" xmlns="http://www.w3.org/2000/svg"><path d="m10.0875 20.175c5.5701 0 10.0892-4.5191 10.0892-10.0875 0-5.56836-4.5191-10.0875-10.0892-10.0875-5.56836 0-10.0875 4.51914-10.0875 10.0875 0 5.5684 4.51914 10.0875 10.0875 10.0875zm0-1.9871c-4.47911 0-8.1004-3.6213-8.1004-8.1004 0-4.47911 3.62129-8.1004 8.1004-8.1004 4.4791 0 8.1022 3.62129 8.1022 8.1004 0 4.4791-3.6231 8.1004-8.1022 8.1004z"/><path d="m8.36855 13.9146 5.42125-3.2084c.484-.28.4743-.94839 0-1.23472l-5.42125-3.2084c-.50078-.2916-1.13301-.05683-1.13301.52011v6.60961c0 .5707.60371.8375 1.13301.5218z"/></svg>