<svg height="16.2211" width="12.8274" xmlns="http://www.w3.org/2000/svg"><path d="m0 0h12.8274v16.2211h-12.8274z" opacity="0"/><path d="m1.39555 16.2211h2.2916c.9164 0 1.39374-.4774 1.39374-1.4018v-13.42555c0-.93965-.47734-1.38671904-1.39374-1.39375h-2.2916c-.916406 0-1.39550678.477343-1.39550678 1.39375v13.42555c-.00527322.9244.47206978 1.4018 1.39550678 1.4018zm7.39139 0h2.28356c.9244 0 1.3955-.4774 1.3955-1.4018v-13.42555c0-.93965-.4711-1.39375-1.3955-1.39375h-2.28356c-.92441 0-1.40351.477343-1.40351 1.39375v13.42555c0 .9244.47383 1.4018 1.40351 1.4018z"/></svg>