<svg height="17.4789" width="22.9756" xmlns="http://www.w3.org/2000/svg"><path d="m0 0h22.9756v17.4789h-22.9756z" opacity="0"/><g fill-opacity=".85"><path d="m19.322 15.6773c.4387.2793.9793.1721 1.2834-.2711 1.2711-1.7961 2.0088-4.1998 2.0088-6.67163 0-2.47188-.7297-4.8916-2.0088-6.67343-.3041-.44141-.8447-.54863-1.2834-.26934-.4597.28984-.5253.86132-.1876 1.36718 1.0398 1.51621 1.6392 3.51308 1.6392 5.57559 0 2.06253-.6154 4.04163-1.6392 5.57383-.3297.5058-.2721 1.0791.1876 1.3689z"/><path d="m15.4275 13.067c.4031.2668.9465.1773 1.2453-.251.7871-1.0478 1.2539-2.5381 1.2539-4.08143 0-1.54336-.4668-3.02559-1.2539-4.08496-.2988-.4248-.8422-.52402-1.2453-.24746-.4759.31211-.5609.88652-.1879 1.4328.5401.76719.8448 1.81075.8448 2.89962 0 1.08886-.3145 2.12263-.8448 2.89963-.365.5525-.288 1.1127.1879 1.4328z"/><path d="m10.6838 17.4789c.7289 0 1.2582-.5293 1.2582-1.2502v-14.91894c0-.720895-.5293-1.29999438-1.2742-1.29999438-.4977 0-.84437.21210938-1.37933.71425638l-4.09433 3.825398c-.05684.05507-.13594.08437-.22481.08437h-2.76484c-1.431836 0-2.20449.79746-2.20449 2.30566v3.62575c0 1.5162.772654 2.3074 2.20449 2.3074h2.76308c.08887 0 .16797.0241.22481.0791l4.09609 3.8627c.48164.4649.89063.6645 1.39533.6645z"/></g></svg>