<svg height="9" viewBox="0 0 30 9" width="30" xmlns="http://www.w3.org/2000/svg"><path d="m7.39700317 3.69346619c0-1.05758667-.35171508-1.93756104-1.05514526-2.6399231s-1.58622742-1.05354309-2.64839172-1.05354309c-.67199707 0-1.28818512.16555786-1.84856415.49667358-.56037903.33111573-1.00795746.7768631-1.34273529 1.33724213s-.50216675 1.18022919-.50216675 1.85955048c0 .65170288.16738892 1.25717163.50216675 1.81640625s.78235626 1.01188659 1.34273529 1.35795593 1.17656708.519104 1.84856415.519104c.65383911 0 1.26285553-.17303466 1.82704925-.519104.56419373-.34606934 1.01799011-.79872131 1.36138916-1.35795593s.51509857-1.16470337.51509857-1.81640625zm11.14311223 0c0-1.05758667-.3493119-1.93756104-1.0479355-2.6399231-.6986237-.70236206-1.5804673-1.05354309-2.6455307-1.05354309-.6718445 0-1.2879563.16555786-1.8483353.49667358-.560379.33111573-1.0073853.7768631-1.3410187 1.33724213s-.5004501 1.18022919-.5004501 1.85955048c0 .65170288.1668167 1.25717163.5004501 1.81640625s.7806397 1.01188659 1.3410187 1.35795593 1.1764908.519104 1.8483353.519104c.6591797 0 1.2683868-.17303466 1.8276214-.519104s1.0100174-.79872131 1.3523484-1.35795593c.3423309-.55923462.5134964-1.16470337.5134964-1.81640625zm11.1531829 0c0-1.05758667-.3492736-1.93756104-1.047821-2.6399231s-1.5803528-1.05354309-2.6454163-1.05354309c-.6741333 0-1.2919616.16555786-1.8534851.49667358-.5615234.33111573-1.0097122.7768631-1.3445663 1.33724213s-.5022812 1.18022919-.5022812 1.85955048c0 .65170288.1674271 1.25717163.5022812 1.81640625s.7830429 1.01188659 1.3445663 1.35795593c.5615235.34606934 1.1793518.519104 1.8534851.519104.6568909 0 1.2655259-.17303466 1.8259049-.519104s1.0116958-.79872131 1.3539505-1.35795593c.3422546-.55923462.5133819-1.16470337.5133819-1.81640625z" transform="translate(.062715 .74501)"/></svg>