<svg height="32" viewBox="0 0 8 32" width="8" xmlns="http://www.w3.org/2000/svg"><path d="m-4 16c0-1.1453595-.37792147-2.0983661-1.13376462-2.8590196-.75584316-.7606536-1.70997537-1.1409804-2.86239675-1.1409804-.72942658 0-1.39792995.1792981-2.00551033.5378943-.6075803.3585962-1.0925301.8413377-1.4548494 1.4482246-.3623192.6068868-.5434789 1.2781805-.5434789 2.0138811 0 .70579.1811597 1.3615088.5434789 1.9671562.3623193.6056475.8472691 1.0958667 1.4548494 1.4706575.60758038.3747909 1.27608375.5621863 2.00551033.5621863.71076994 0 1.36932596-.1873954 1.97566797-.5621863.606342-.3747908 1.09467639-.86501 1.46500326-1.4706575.37032676-.6056474.55549014-1.2613662.55549014-1.9671562zm12 0c0-1.1453595-.37792147-2.0983661-1.13376462-2.8590196-.75584316-.7606536-1.70997537-1.1409804-2.86239675-1.1409804-.72942658 0-1.39792995.1792981-2.00551033.5378943-.60758027.3585962-1.09253009.8413377-1.45484935 1.4482246-.36231926.6068868-.54347895 1.2781805-.54347895 2.0138811 0 .70579.18115969 1.3615088.54347895 1.9671562.36231926.6056475.84726908 1.0958667 1.45484935 1.4706575.60758038.3747909 1.27608375.5621863 2.00551033.5621863.71076994 0 1.36932596-.1873954 1.97566797-.5621863.606342-.3747908 1.09467639-.86501 1.46500326-1.4706575.37032676-.6056474.55549014-1.2613662.55549014-1.9671562zm12 0c0-1.1453595-.3779215-2.0983661-1.1337646-2.8590196-.7558432-.7606536-1.7099754-1.1409804-2.8623968-1.1409804-.7294265 0-1.3979299.1792981-2.0055103.5378943-.6075803.3585962-1.0925301.8413377-1.4548494 1.4482246-.3623192.6068868-.5434789 1.2781805-.5434789 2.0138811 0 .70579.1811597 1.3615088.5434789 1.9671562.3623193.6056475.8472691 1.0958667 1.4548494 1.4706575.6075804.3747909 1.2760838.5621863 2.0055103.5621863.71077 0 1.369326-.1873954 1.975668-.5621863.606342-.3747908 1.0946764-.86501 1.4650033-1.4706575.3703267-.6056474.5554901-1.2613662.5554901-1.9671562z" transform="matrix(0 1 -1 0 20 12)"/></svg>