<svg height="28" viewBox="0 0 28 28" width="28" xmlns="http://www.w3.org/2000/svg"><path d="m9.98046875 12.7011719c.40104165 0 .74739585-.1595052 1.03906245-.4785157.2916667-.3190104.4375-.7291666.4375-1.2304687s-.1458333-.9114583-.4375-1.23046875c-.2916666-.31901042-.6380208-.47851563-1.03906245-.47851563-.40104167 0-.74511719.15950521-1.03222656.47851563-.28710938.31901045-.43066407.72916665-.43066407 1.23046875s.14355469.9114583.43066407 1.2304687c.28710937.3190105.63118489.4785157 1.03222656.4785157zm7.98437505 0c.4010416 0 .7473958-.1595052 1.0390624-.4785157.2916667-.3190104.4375-.7291666.4375-1.2304687s-.1458333-.9114583-.4375-1.23046875c-.2916666-.31901042-.6380208-.47851563-1.0390624-.47851563-.4010417 0-.7451172.15950521-1.0322266.47851563-.2871094.31901045-.4306641.72916665-.4306641 1.23046875s.1435547.9114583.4306641 1.2304687c.2871094.3190105.6311849.4785157 1.0322266.4785157zm-8.80468755 5.2910156c0 .3007813.19824219.6722005.59472656 1.1142578.39648439.4420573.95475259.8339844 1.67480469 1.1757813.7200521.3417968 1.5540365.5126953 2.5019531.5126953.9479167 0 1.7819011-.1708985 2.5019532-.5126953.720052-.3417969 1.2783203-.733724 1.6748046-1.1757813.3964844-.4420573.5947266-.8134765.5947266-1.1142578 0-.1640625-.0638021-.2779948-.1914062-.3417969-.1276042-.0638021-.264323-.0638021-.4101563 0-.5013021.2734375-1.0732422.5354818-1.7158203.7861328-.6425781.2506511-1.460612.3759766-2.4541016.3759766s-1.8115234-.1253255-2.4541015-.3759766c-.6425782-.250651-1.209961-.5126953-1.70214848-.7861328-.15494791-.0638021-.29622395-.0638021-.42382812 0s-.19140625.1777344-.19140625.3417969zm4.78515625 9.8984375c1.9049479 0 3.6982422-.3645833 5.3798828-1.09375s3.1650391-1.7363281 4.4501953-3.0214844c1.2851563-1.2851562 2.2923177-2.7685547 3.0214844-4.4501953s1.09375-3.4749349 1.09375-5.3798828-.3645833-3.6982422-1.09375-5.37988281c-.7291667-1.68164063-1.7363281-3.16503907-3.0214844-4.45019531-1.2851562-1.28515626-2.7708333-2.29231771-4.4570312-3.02148438s-3.4817709-1.09375-5.3867188-1.09375-3.6982422.36458333-5.37988279 1.09375c-1.68164062.72916667-3.16276041 1.73632812-4.44335937 3.02148438-1.28059896 1.28515624-2.28548177 2.76855468-3.01464844 4.45019531-.72916667 1.68164061-1.09375 3.47493491-1.09375 5.37988281s.36458333 3.6982422 1.09375 5.3798828 1.73632812 3.1650391 3.02148438 4.4501953c1.28515624 1.2851563 2.76855468 2.2923177 4.45019531 3.0214844 1.68164061.7291667 3.47493491 1.09375 5.37988281 1.09375zm0-2.3242188c-1.6132813 0-3.1217448-.3007812-4.52539062-.9023437-1.40364584-.6015625-2.63639323-1.4332682-3.69824219-2.4951172-1.06184896-1.0618489-1.89127604-2.2945963-2.48828125-3.6982422-.59700521-1.4036458-.89550782-2.9121093-.89550782-4.5253906s.29850261-3.1217448.89550782-4.52539062c.59700521-1.40364584 1.42415364-2.63867188 2.48144531-3.70507813s2.28776042-1.89811198 3.69140625-2.49511719c1.4036458-.59700521 2.9121094-.89550781 4.5253906-.89550781 1.6132813 0 3.1217448.2985026 4.5253906.89550781 1.4036459.59700521 2.6386719 1.42871094 3.7050782 2.49511719 1.0664062 1.06640625 1.9003906 2.30143229 2.5019531 3.70507813.6015625 1.40364582.9023437 2.91210932.9023437 4.52539062s-.2985026 3.1217448-.8955078 4.5253906c-.5970052 1.4036459-1.4264323 2.6363933-2.4882812 3.6982422-1.061849 1.061849-2.296875 1.8935547-3.7050781 2.4951172-1.4082032.6015625-2.9189453.9023437-4.5322266.9023437z"/></svg>