<svg height="22" viewBox="0 0 18 22" width="18" xmlns="http://www.w3.org/2000/svg"><path d="m3.06640625 21.0839844h11.20117185c1.0221354 0 1.788737-.2539063 2.2998047-.7617188s.7666016-1.2630208.7666016-2.265625v-9.74609372c0-1.00260417-.2555339-1.7578125-.7666016-2.265625s-1.2776693-.76171876-2.2998047-.76171876h-2.7246093v1.57226563h2.6953124c.4817709 0 .8561198.13020833 1.1230469.390625s.4003907.64453125.4003907 1.15234375v9.5703125c0 .5078125-.1334636.8919271-.4003907 1.1523438-.2669271.2604166-.641276.390625-1.1230469.390625h-11.1523437c-.48828125 0-.86263021-.1302084-1.12304688-.390625-.26041666-.2604167-.390625-.6445313-.390625-1.1523438v-9.5703125c0-.5078125.13020834-.89192708.390625-1.15234375.26041667-.26041667.63476563-.390625 1.12304688-.390625h2.70507812v-1.57226563h-2.72460937c-1.02213542 0-1.78873698.25227865-2.29980469.75683594s-.76660156 1.26139323-.76660156 2.27050782v9.74609372c0 1.0091146.25553385 1.7659505.76660156 2.2705078s1.27766927.756836 2.29980469.756836zm5.60546875-6.4257813c.09765625 0 .19042969-.0179036.27832031-.0537109.08789063-.0358073.18066407-.1025391.27832031-.2001953l3.30078128-3.1933594c.078125-.0716146.1367187-.148112.1757812-.2294922s.0585938-.1741536.0585938-.2783203c0-.2018229-.0683594-.3662109-.2050781-.4931641-.1367188-.1269531-.3059896-.1904297-.5078126-.1904297-.2148437 0-.390625.078125-.5273437.234375l-1.484375 1.5722657-.65429688.6933593.05859376-1.4648437v-10.29296875c0-.20833333-.0764974-.38736979-.22949219-.53710937-.15299479-.14973959-.33365886-.22460938-.54199219-.22460938-.21484375 0-.39876302.07486979-.55175781.22460938-.15299479.14973958-.22949219.32877604-.22949219.53710937v10.29296875l.05859375 1.4648437-.65429687-.6933593-1.484375-1.5722657c-.13671876-.15625-.31575521-.234375-.53710938-.234375-.20182292 0-.36946615.0634766-.50292969.1904297-.13346354.1269532-.20019531.2913412-.20019531.4931641 0 .1041667.01953125.1969401.05859375.2783203s.09765625.1578776.17578125.2294922l3.30078125 3.1933594c.09765625.0976562.19042969.164388.27832031.2001953.08789063.0358073.18391927.0537109.28808594.0537109z" transform="translate(.490234 .167969)"/></svg>