<svg height="22" viewBox="0 0 19 22" width="19" xmlns="http://www.w3.org/2000/svg"><path d="m4.140625 19.7851562h9.8339844c.0651041 0 .1269531-.0016276.1855468-.0048828.0585938-.0032552.1139323-.008138.1660157-.0146484l-11.26953128-11.26953125c-.28645833.14973958-.49967447.37109375-.63964843.6640625s-.20996094.67057292-.20996094 1.13281255v7.4511718c0 .703125.15950521 1.2190755.47851563 1.5478516.31901041.328776.80403645.493164 1.45507812.493164zm4.85351562-19.7851562c-.74869791 0-1.45670572.14811198-2.12402343.44433594s-1.24674479.73730468-1.73828125 1.32324218-.84472656 1.32161459-1.05957032 2.20703126c0 .01302083-.0016276.02441406-.00488281.03417968-.00325521.00976563-.00813802.02441406-.01464843.04394532l1.30859374 1.30859374c0-.0390625.00162761-.07649739.00488282-.11230468s.00488281-.07324219.00488281-.11230469c.07161458-.78125.27832031-1.44205729.62011719-1.98242187.34179687-.54036459.77311198-.95052084 1.29394531-1.23046876.52083333-.27994791 1.09049479-.41992187 1.70898437-.41992187.67057292 0 1.28092448.16276042 1.83105468.48828125s.9895833.80240885 1.3183594 1.43066406c.328776.62825521.4931641 1.39485677.4931641 2.29980469v2.50976563l-4.38476568.00976562 7.51953128 7.5292969v-5.4882813c0-.63151039-.1302084-1.11328122-.390625-1.44531248-.2604167-.33203124-.6510417-.52734374-1.171875-.5859375v-2.31445312c0-.99609375-.1416016-1.86686198-.4248047-2.61230469s-.6705729-1.36393229-1.1621094-1.85546875c-.4915364-.49153646-1.0498047-.859375-1.6748047-1.10351562-.625-.24414063-1.27604164-.36621094-1.95312498-.36621094zm7.97851558 20.8105469c.1432292.1432291.3206381.2148437.5322266.2148437.2115886 0 .3889974-.0716146.5322266-.2148437.1432291-.1497396.2148437-.3287761.2148437-.5371094s-.0716146-.3841146-.2148437-.5273437l-16.7480469-16.7382813c-.14322917-.14322917-.32063802-.21647135-.53222656-.21983045-.21158854-.00315132-.39225261.07009087-.54199219.21983045-.14322917.14322917-.21484375.32063802-.21484375.53222656s.07161458.3889974.21484375.53222656z" transform="translate(.660156 .021484)"/></svg>